<svg xmlns="http://www.w3.org/2000/svg" xml:space="preserve" width="2000" height="1500" data-id="lg_r7JhTYLUj31RjQKEXT" data-version="1" viewBox="0 0 2000 1500"><path fill="#fff" stroke="transparent" d="M0 0h2000v1500H0z"/><g data-padding="20"><g transform="translate(-1422.512 -1067.912)scale(2.36715)"><path fill="#a2a2a2" d="M975.982 589.243a154.822 154.822 0 1 0 0 309.644 154.822 154.822 0 1 0 0-309.644"/><path fill="#a2a2a2" d="M932.374 728.855c-.1-.121-.303-.314-.275-.352.193-.292.413-.204.605.022Z"/><rect width="367" height="50.85" x="413.202" y="342.65" fill="none" rx="0" ry="0" transform="translate(549.87 437.17)"/><path fill="#545454" d="M963.882 819.295v-7.38h2.25v-20.25h-2.25v-7.38h20.66q5.8 0 8.86 2.39 3.06 2.38 3.06 7.74 0 3.01-1.21 5.22-1.22 2.2-3.47 3.06l.05.45q4.32.67 4.32 5.31v3.46h2.11v7.38h-14.26v-10.57q0-1.76-.52-2.66t-1.62-1.21q-1.1-.32-3.13-.32v7.38h2.97v7.38Zm14.85-20.25h2.43q1.31 0 1.96-.7.65-.69.65-2.18v-1.62q0-1.48-.65-2.18t-1.96-.7h-2.43Zm51.53 20.25h-30.38v-7.38h2.25v-20.25h-2.25v-7.38h30.38v13.59h-10.08v-6.21h-5.45v7.11h3.96v5.13h-3.96v8.01h5.45v-7.11h10.08Zm20.61-27.63v-7.38h15.02v7.38h-1.8l-8.05 27.63h-14.58l-8.06-27.63h-1.79v-7.38h17.28v7.38h-2.34l3.1 15.08h.45l3.1-15.08Zm33.56 27.63h-17.11v-7.38h2.25v-20.25h-2.25v-7.38h17.11v7.38h-2.25v20.25h2.25Zm32.17 0h-30.37v-7.38h2.25v-20.25h-2.25v-7.38h30.37v13.59h-10.08v-6.21h-5.44v7.11h3.96v5.13h-3.96v8.01h5.44v-7.11h10.08Zm40.2-27.63v-7.38h14.4v7.38h-1.8l-6.71 27.63h-13.45l-4.1-19.44h-.45l-4.32 19.44h-13.45l-7.16-27.63h-1.8v-7.38h16.65v7.38h-1.71l1.76 11.48h.44l4.28-18.86h12.96l3.96 18.86h.45l1.76-11.48Zm29.8 28.26q-4.32 0-8.17-.74t-5.92-1.69v-8.91h9.9q0 1.4.63 2.03t2.3.63q1.39 0 2-.43t.61-1.28q0-.72-.59-1.24-.58-.52-2.02-1.06l-3.87-1.35q-5-1.89-7.18-4.45-2.18-2.57-2.18-6.93 0-5.31 3.48-8.08 3.49-2.77 11.64-2.77 3.91 0 7.35.79 3.45.79 5.56 2.09v8.06h-9q0-2.25-2.79-2.25-1.35 0-1.91.33-.56.34-.56 1.2 0 .76.65 1.21t2.14.95l3.91 1.35q4.77 1.62 6.95 4.2 2.19 2.59 2.19 6.78 0 5.71-3.85 8.64-3.85 2.92-11.27 2.92m52.36-35.64v7.38h-2.25v20.25h2.25v7.38h-17.01v-7.38h2.16v-7.42h-6.29v7.42h2.15v7.38h-17.01v-7.38h2.25v-20.25h-2.25v-7.38h17.01v7.38h-2.15v6.84h6.29v-6.84h-2.16v-7.38Zm32.18 35.01h-30.37v-7.38h2.25v-20.25h-2.25v-7.38h30.37v13.59h-10.08v-6.21h-5.44v7.11h3.96v5.13h-3.96v8.01h5.44v-7.11h10.08Zm29.56 0h-27.85v-7.38h2.25v-20.25h-2.25v-7.38h18.99v7.38h-4.14v20.25h4.05v-4.14h8.95Zm22.28 0h-20.75v-7.38h2.25v-20.25h-2.25v-7.38h26.91v11.66h-7.96v-4.28h-4.1v7.47h6.8v5.13h-6.8v7.65h5.9Z"/><rect width="102.249" height="28.25" x="545.577" y="353.95" fill="none" rx="0" ry="0" transform="translate(417.49 393.08)"/><path fill="#545454" d="M972.962 764.865q.44.29.44 1.02 0 .72-.2 1.27-.19.55-.68 1.03-1.1 1.07-3.35 1.07-2.61 0-3.98-1.93-1.2-1.72-1.2-4.65 0-2.95 1.63-4.64 1.55-1.59 4.2-1.59 1.84 0 2.88 1.07.82.85.82 1.97t-.43 2.02q-.44.89-1.28 1.54-1.73 1.34-4.85 1.42.26 2.45 1.54 3.28.47.29 1.24.29.76 0 1.63-.8.87-.81 1.59-2.37m-6.07-1.94v.38q3.86-.26 3.86-3.74 0-1.31-.78-1.76-.27-.14-.71-.14t-.89.26q-.44.27-.77.88-.71 1.33-.71 4.12m16.86-6.96q.33.73.33 1.48 0 .74-.07 1.23t-.2.94q-.31 1.02-.87 1.57-.38-1.89-.82-2.45-.45-.56-.89-.76-.45-.19-.95-.19t-.82.1q-.31.09-.55.28-.52.4-.52.91t.26.89q.25.37.67.69.42.33.96.63l1.1.62q1.42.8 1.94 1.32 1.04 1.04 1.04 2.19 0 1.5-1.03 2.52-1.29 1.32-3.88 1.32-2.35 0-3.54-1.1-.34-.31-.49-.63.1-.92.82-1.72.7-.78 1.36-.91-.05.16-.05.48t.18.79.53.87q.76.93 1.73.93.96 0 1.41-.44.46-.44.46-1t-.26-.94-.68-.71-.96-.63l-1.09-.63q-1.41-.83-1.93-1.41-1.05-1.17-1.05-2.55 0-1.46 1.22-2.36 1.16-.85 2.89-.85l2.15.14q.78 0 1.09-.19.3-.19.51-.43m6.93-4.17q-.25.94-.25 2.25t.05 1.68q.06.36.18.58.23.37.9.37h3.27q0 .68-.33 1.05-.6.66-1.46.66-.43 0-.76-.12-.6-.25-.93-.25t-.53.13q-.21.13-.33.37-.22.44-.22 1.92t.09 3.03.46 2.59q.36 1.04 1.11 1.57.74.52 2.05.52 0 .38-.51.91-.14.14-.24.19-2.16 0-3.23-.51-1.23-.61-1.76-2.17-.52-1.59-.52-4.7 0-2.72-.15-3.22-.15-.49-.27-.65-.15-.19-.71-.45.76-.58 1.5-2.14l.61-1.28q.65-1.47 1.11-1.9t.87-.43m6.33 15.24q0-.85.57-1.47.57-.61 1.39-.61t1.39.61q.58.62.58 1.47 0 .88-.58 1.48-.58.61-1.39.61-.8 0-1.39-.61-.57-.6-.57-1.48m21.31-16.95q3.92 0 3.92 3.32 0 2.77-3.18 7.86l-2.17 3.42q-1 1.62-1 2.13 0 .49.28.66.5.31 1.49.31t1.73-.22q.75-.22 1.38-.61 1.32-.84 1.76-2.22.53.72.53 1.85 0 1.15-.24 1.59-.45.83-1.47.83h-9.13q.12-.67.95-2.21 3.29-5.98 3.97-7.34.68-1.35 1.17-2.5 1.06-2.54 1.06-3.97 0-.73-.32-1.08-.33-.36-1.02-.36-.7 0-1.23.26t-.99.69q-.46.44-.83 1.02-.37.57-.65 1.21-.55 1.29-.69 2.56-.95-.48-.95-3.16 0-2.92.71-4.21.18-.33.43-.44.39.53.58.66.33.19.78.19.44 0 .75-.03.32-.04.67-.09.89-.12 1.71-.12m10.41 7.7q0 10.25 2.56 10.25 2.55 0 2.55-10.25 0-4.96-1.35-6.07-.48-.4-1.2-.4-2.04 0-2.43 3.64-.13 1.22-.13 2.83m2.56 11.47q-2.86 0-4.44-3.17-1.44-2.89-1.44-7.59 0-5.99 3.18-7.77 1.11-.63 2.7-.63 3.02 0 4.52 2.37 1.35 2.14 1.35 6.03 0 6.47-2.58 9.29-1.35 1.47-3.29 1.47m14.31-19.17q3.92 0 3.92 3.32 0 2.77-3.17 7.86l-2.18 3.42q-1 1.62-1 2.13 0 .49.28.66.5.31 1.49.31t1.74-.22q.74-.22 1.38-.61 1.31-.84 1.75-2.22.53.72.53 1.85 0 1.15-.23 1.59-.46.83-1.48.83h-9.13q.12-.67.95-2.21 3.3-5.98 3.97-7.34.68-1.35 1.17-2.5 1.06-2.54 1.06-3.97 0-.73-.32-1.08-.33-.36-1.02-.36-.7 0-1.23.26t-.99.69q-.45.44-.83 1.02-.37.57-.65 1.21-.55 1.29-.68 2.56-.96-.48-.96-3.16 0-2.92.71-4.21.19-.33.43-.44.39.53.59.66.33.19.77.19.45 0 .76-.03.31-.04.66-.09.89-.12 1.71-.12m11.45 11.48h1.99q.04-1.26.04-3.53 0-2.28-.37-4.04h3.36l-.09.54q-.13.78-.23 1.92-.18 2.13-.18 4.58v.51q1.28-.08 2.39-.59v2.57l-.5-.15q-.98-.27-1.87-.34.11 4.22.52 5.43.08.26.2.55h-4.33q.46-.72.6-1.45.14-.72.21-1.33.14-1.54.22-3.33h-7.06q1.4-2.81 2.14-8.39.2-1.59.2-2.85t-.07-1.33h3.92l-.17.53-.19.52q-.2.61-.41 1.37l-1.51 5.78q-.38 1.49-.47 2.07-.1.57.33.78t1.33.18"/><path fill="#333" d="M915.916 898.912c1.793 5.005 3.003 10.148 3.564 15.433a28.77 28.77 0 0 1-2.887 16.005c-2.228 4.51-6.04 7.354-10.67 9.169a46.2 46.2 0 0 1-9.5 2.689c-5.812.935-9.112 4.697-11.312 9.652-1.452 3.278-2.486 6.743-3.724 10.115-1.001 2.717-1.98 5.445-3.047 8.135a26.7 26.7 0 0 1-6.671 9.845c-4.274 3.982-9.28 5.676-15.136 4.862-6.655-.924-13.057-2.9-19.531-4.576-6.413-1.65-12.842-1.623-19.305-.22-4.378.945-8.717 2.265-13.282 2.09q-.594-.033-1.2 0c-4.207.264-7.914-2.068-12.187-2.118-4.241-.055-7.645-3.135-11.242-5.308-15.857-9.597-25.157-24.271-31.46-41.085-3.157-8.393-3.12-17.226-1.617-26.042 1.578-9.29 4.273-18.276 7.183-27.203 3.789-11.627 6.67-23.441 7.755-35.64.62-7.078.363-14.173.082-21.274-.43-10.78-1.512-21.516-1.617-32.33-.121-12.77 3.339-24.424 9.279-35.54 7.397-13.844 16.005-26.967 23.996-40.458 1.227-2.068 3.069-3.702 4.07-5.913.292-.638.704-1.237.858-1.903.209-.907-.264-1.358-1.182-1.012-.65.248-1.25.633-1.865.957-7.782 4.103-15.807 7.69-23.853 11.226-5.654 2.49-11.605 3.674-17.75 3.877-7.501.253-14.992.308-22.312-1.815-4.345-1.265-8.355-3.294-12.414-5.208a5 5 0 0 1-1.006-.644c-1.513-1.237-1.617-1.925-.358-3.465 4.796-5.885 9.559-11.808 14.845-17.28 5.626-5.83 11.407-11.485 17.699-16.61 10.648-8.67 22.709-14.488 35.948-17.86 7.54-1.924 15.103-3.805 22.89-4.62 3.73-.39 7.37-.252 11.012.584.583.137 1.16.33 1.754.4 1.557.166 2.255-.483 2.079-2.072-.093-.88-.44-1.738-.742-2.574-3.245-8.844-4.697-17.947-4.081-27.368a56.7 56.7 0 0 1 2.937-14.944c8.195-23.606 24.249-39.787 46.964-49.61a99.55 99.55 0 0 1 40.216-8.321c11.308.055 22.237 2.09 32.434 7.354 4.52 2.33 9.405 4.003 13.447 7.177 10.087 7.915 18.139 17.402 22.429 29.71.132.37.363.7.55 1.046-.071 1.243.517 2.332.82 3.482 1.83 6.968 1.61 13.854-.853 20.625-1.65 4.526-3.3 5.67-8.02 5.522-1.54-.05-2.27.308-2.76 1.88-1.793 5.753-4.301 11.176-7.964 16.01-.22.298-.528.606-.264 1.068.517.33.924-.044 1.32-.292q3.955-2.475 7.238-5.791c.49-.495.924-1.061 1.485-1.463.528-.374 1.166-.275 1.628.22.429.45.143.913-.11 1.348a17 17 0 0 1-2.53 3.338c-2.271 2.305-4.62 4.51-7.97 6.248.985.11 1.376.209 1.76.193 1.293-.044 2.586-.165 3.878-.187.369-.006.809.082.908.594.104.517-.264.704-.616.863-.935.429-1.936.429-2.937.473-1.953.072-3.89-.242-5.87-.495.056.402.023.627.11.78q.315.507.716.958c5.39 5.929 11.028 11.572 18.095 15.565 1.48.825 2.888 1.788 4.3 2.728 1.189.787 1.42 1.793.716 3.09a11.55 11.55 0 0 1-4.07 4.313c-2.783 1.76-5.692 3.19-9.003 3.152-.242.764.148 1.149.368 1.578 1.375 2.7 3.366 4.917 5.368 7.167 2.547 2.86 2.492 4.18-.28 6.858-1.007.974-.88 1.502-.1 2.404 1.2 1.39 1.799 3.074 2.118 4.884.27 1.523-.1 2.535-1.732 2.887-1.172.248-2.31.622-3.487.858-1.375.275-1.54 1.05-1.045 2.178.775 1.76 2.013 3.207 3.195 4.686 3.58 4.466 4.318 9.405 1.942 14.58-2.46 5.369-7.37 9.769-14.476 8.922-2.596-.314-5.115-.897-7.64-1.485-6.507-1.53-12.991-3.135-19.58-4.28-.198-.22-.418-.313-.616-.021-.022.038.182.23.275.352.006.104-.028.22.01.297 3.169 6.847 3.367 14.322 4.605 21.576.269 1.595-.226 2.019-1.777 1.705-.88-.176-1.727-.495-2.612-.638-4.032-.643-4.208-.451-3.383 3.454q3.718 17.562 7.425 35.129 10.263 48.779 20.537 97.553c.248 1.16.473 2.327 1.045 3.416 1.045 1.98.726 2.552-1.43 2.93-.913.16-1.793.045-2.662-.23a108 108 0 0 0-1.776-10.021q-13.816-64.905-27.61-129.811c-.556-2.612-.561-2.634-3.212-2.816-10.637-.742-20.988-2.728-30.8-7.067a137.5 137.5 0 0 1-21.758-11.98c-10.522-7.166-19.96-15.498-26.098-26.966-.32-.594-.77-1.127-1.265-1.842.627 2.783 1.364 5.329 2.618 7.716 4.785 9.103 9.746 18.068 16.34 26.07 6.293 7.629 12.447 15.389 19.278 22.539a152.4 152.4 0 0 1 16.434 20.598c6.012 8.98 9.004 18.865 8.575 29.722a93.5 93.5 0 0 1-2.178 16.318c-1.243 5.654-2.712 11.259-4.004 16.902-1.194 5.203-.924 10.279 1.265 15.246 3.19 7.216 6.187 14.52 9.355 21.74 1.397 3.18 3.025 6.26 4.543 9.384.385 2.118 1.287 4.043 2.178 5.973M801.02 698.19q.314-.022.314-.292l.522-.33c3.729-1.908 6.837-4.713 10.23-7.106 1.216-.858 2.382-2.035 3.746-2.381 1.694-.424 2.128-1.375 2.453-2.805 1.875-8.25 3.558-16.555 5.852-24.701.396-1.402-.105-1.76-1.221-2.073a27.5 27.5 0 0 0-10.368-.76c-9.146.985-17.985 3.41-26.846 5.759-.368.099-.693.352-1.04.534-2.991.346-5.538 2.315-8.634 2.354-.55.005-1.072.462-1.072 1.177-9.12 3.608-17.061 9.08-24.42 15.466-10.077 8.723-19.064 18.49-27.54 28.743-.55.66-1.314 1.21-1.512 2.293 2.673 1.348 5.352 2.618 8.245 3.383 7.436 1.963 15.01 1.996 22.605 1.485 4.614-.308 9.146-1.084 13.42-2.882 10.395-4.378 20.663-9.037 30.475-14.63 1.617-.93 3.41-1.65 4.626-3.174Zm35.684-38.242c-2.887-3.113-3.18-3.091-6.017-.32-1.001.986-1.331 2.168-1.628 3.439q-2.69 11.517-5.396 23.028c-1.435 6.1-1.121 6.793 4.494 9.477a8.8 8.8 0 0 0 2.244.775c2.31.385 4.494 1.012 6.193 2.728.803.809 1.37.56 1.87-.313a16.5 16.5 0 0 0 1.975-5.94c1.32-9.323 1.446-18.706 1.237-28.105-.011-.396.01-.81-.071-1.194-.33-1.54-1.155-2.486-2.888-2.227-.66-.473-1.045-1.342-2.013-1.348m36.988 17.232c-3.025-2.53-6.644-4.015-10.148-5.682-5.142-2.453-10.631-3.878-16.11-5.522-.263 6.985-.412 13.778-.808 20.554-.291 4.972-.616 9.999-3.217 14.476-.44.764-.143 1.303.165 1.936 4.015 8.227 8.98 15.702 15.785 22.01 8.855 8.206 19.26 13.822 29.958 19.04 4.785 2.333 9.862 3.813 15.076 4.825 2.843.55 5.676 1.21 8.54 1.54 6.244.715 12.525.039 19.09.72-.642-3.827-.691-7.314-1.923-10.636a45 45 0 0 1-1.722-5.731c-.517-2.294-1.408-4.356-2.937-6.138l-1.562-2.36c-.907-2.612-2.722-4.603-4.576-6.545-3.437-3.597-7.111-6.985-10.307-10.785a184 184 0 0 0-11.687-12.744l-.457-.533c-2.414-2.915-5.38-5.225-8.35-7.52-3.277-2.546-6.82-4.762-9.794-7.688.07-1.122-.7-1.568-1.584-1.75-1.254-.263-2.288-.978-3.432-1.468m34.072 9.213c-2.09-.385-3.014-1.936-4.043-3.19-4.24-5.181-8.607-10.263-12.518-15.703-1.925-2.673-3.707-5.434-4.61-8.684-2.65-9.515 3.796-17.023 13.509-15.725 3.905.523 7.16 2.255 9.922 5.264-1.006-7.167-8.745-11.957-15.52-9.785-2.707.87-5.055 2.376-7.211 4.197-8.602 7.233-14.058 16.242-15.521 27.51-.314 2.46-.38 2.454 1.776 3.78q.644.385 1.282.78c8.145 5.236 16.302 10.417 23.276 17.298 7.337 7.238 13.937 15.142 21.01 22.616 2.816 2.976 5.55 6.039 7.925 9.383a5.17 5.17 0 0 0 3.4 2.162c4.883 1.044 9.745 2.177 14.635 3.2 4.202.88 8.305 2.217 12.578 2.75 3.218.402 6.353.385 9.334-1.243 4.262-2.337 5.83-6.308 4.174-10.824a24.8 24.8 0 0 0-3.987-7.001 26 26 0 0 1-2.266-3.162c-2.404-4.153-1.914-5.22 2.722-6.25 2.728-.604 3.119-1.32 2.063-3.821-.473-1.128-1.144-2.096-2.25-2.717-.605-.335-1.243-.66-1.743-1.127-.583-.55-.787-1.216.275-1.551.374-.121.786-.138 1.16-.27 3.273-1.144 3.806-3.19 1.507-5.78a79 79 0 0 0-1.622-1.766c-2.228-2.354-3.372-5.423-5.291-7.986-.237-.313-.468-.66-.077-1.457 5.923.445 11.11-1.32 14.564-6.71-.814-1.177-1.98-1.595-3.01-2.178-7.842-4.472-14.167-10.681-20.041-17.413-.522-.605-1.09-1.227-1.386-1.947-.5-1.21-.885-2.69.303-3.586 2.106-1.595 2.86-4.054 4.345-6.023.935-1.243.649-4.07 3.558-3.228.12.033.44-.374.567-.627.66-1.32 1.298-2.657 2.007-4.125-5.604-2.728-11.033-3.45-16.604-.715-1.018.5-1.97.995-3.08.319-.87-.528-1.111-1.09-.176-1.815 2.59-2.02 5.467-3.454 8.789-3.317 3.3.132 6.506.968 9.53 2.387.766.363 1.448 1.062 2.515.836.253-.66.539-1.287.742-1.947.534-1.721.517-1.721-1.32-2.013-5.626-.896-11.253-1.754-16.863-2.706a40.7 40.7 0 0 0-11.946-.33c-9.108 1.16-10.521 4.692-10.285 11.72.143 4.192.462 8.383.65 12.574.456 10.296-.65 20.57-.518 30.866.028 1.782-.34 3.58-.67 5.346-.347 1.87-.897 3.7-1.98 5.302-1.035 1.529-2.014 1.699-3.526.638-2.002-1.397-2.981-3.45-3.438-5.775a89 89 0 0 1-1.248-9.196c-.594-6.573-1.227-13.134-1.837-19.701a5.34 5.34 0 0 0-1.733-3.62c-2.717-2.606-5.94-3.508-9.531-3.723-9.378-.561-12.6 8.762-10.274 14.509a22 22 0 0 0 3.2 5.396c4.34 5.483 8.674 10.967 13.31 16.203.842.95 1.82 1.87 1.497 3.7" vector-effect="non-scaling-stroke"/><path fill="#fff" d="M954.04 897.198c-5.374-.165-10.753-.286-16.127-.533-2.882-.132-5.753-.495-8.635-.715-5.29-.402-10.274-2.42-15.532-3.014-1.517-3.13-3.145-6.21-4.542-9.39-3.168-7.221-6.16-14.52-9.35-21.741-2.2-4.966-2.464-10.043-1.271-15.246 1.293-5.642 2.76-11.247 4.004-16.901a93.5 93.5 0 0 0 2.178-16.32c.429-10.856-2.563-20.74-8.58-29.721a152.4 152.4 0 0 0-16.43-20.597c-6.83-7.15-12.98-14.905-19.276-22.54-6.6-8.002-11.55-16.966-16.335-26.07-1.265-2.386-1.996-4.932-2.618-7.715.495.715.94 1.248 1.265 1.842 6.133 11.468 15.57 19.8 26.092 26.967a137.5 137.5 0 0 0 21.764 11.979c9.806 4.344 20.157 6.324 30.8 7.067 2.64.18 2.65.203 3.206 2.816l27.61 129.81a108 108 0 0 1 1.777 10.022m-46.272-210.815c.33-1.826-.66-2.75-1.496-3.702-4.636-5.236-8.97-10.725-13.31-16.203a22 22 0 0 1-3.201-5.39c-2.326-5.753.897-15.07 10.274-14.52 3.592.22 6.82 1.122 9.532 3.73 1.138 1.088 1.595 2.2 1.732 3.618.61 6.567 1.243 13.129 1.837 19.7.275 3.08.649 6.16 1.249 9.203.456 2.32 1.43 4.372 3.437 5.775 1.513 1.056 2.492.88 3.53-.644 1.079-1.595 1.629-3.432 1.98-5.302.33-1.76.694-3.564.667-5.346-.132-10.296.973-20.57.517-30.866-.187-4.19-.506-8.382-.65-12.573-.236-7.03 1.178-10.56 10.286-11.72a40.7 40.7 0 0 1 11.946.33c5.61.95 11.236 1.815 16.857 2.706 1.843.292 1.859.292 1.326 2.013-.204.66-.49 1.287-.743 1.947-1.067.225-1.75-.473-2.513-.836a24.75 24.75 0 0 0-9.532-2.387c-3.322-.138-6.198 1.298-8.79 3.31-.934.732-.692 1.293.17 1.82 1.118.678 2.07.183 3.087-.318 5.572-2.733 11-2.013 16.605.715-.71 1.469-1.342 2.805-2.008 4.125-.126.253-.44.66-.566.627-2.915-.841-2.618 1.98-3.56 3.229-1.484 1.969-2.237 4.422-4.344 6.022-1.188.897-.803 2.382-.302 3.586.297.715.863 1.348 1.386 1.947 5.874 6.732 12.199 12.942 20.042 17.413 1.023.583 2.2 1 3.008 2.173-3.454 5.39-8.64 7.16-14.564 6.715-.385.803-.16 1.144.077 1.458 1.92 2.563 3.064 5.632 5.29 7.986q.826.869 1.624 1.76c2.299 2.59 1.765 4.642-1.507 5.786-.374.132-.787.148-1.166.27-1.056.335-.853 1-.27 1.55.495.468 1.139.792 1.744 1.128 1.105.62 1.776 1.595 2.255 2.717 1.05 2.508.66 3.217-2.068 3.822-4.637 1.029-5.126 2.096-2.723 6.248a26 26 0 0 0 2.266 3.163 24.8 24.8 0 0 1 3.988 7c1.66 4.51.088 8.488-4.18 10.825-2.97 1.634-6.111 1.645-9.328 1.243-4.274-.533-8.377-1.87-12.58-2.75-4.89-1.023-9.75-2.161-14.634-3.2a5.17 5.17 0 0 1-3.4-2.162c-2.375-3.344-5.11-6.408-7.925-9.383-7.073-7.48-13.673-15.378-21.01-22.616-6.974-6.88-15.125-12.062-23.276-17.298q-.638-.401-1.281-.78c-2.156-1.326-2.09-1.32-1.777-3.78 1.463-11.274 6.919-20.278 15.52-27.51 2.157-1.815 4.51-3.328 7.206-4.197 6.776-2.172 14.52 2.618 15.527 9.785-2.761-3.01-6.017-4.741-9.922-5.264-9.72-1.298-16.16 6.215-13.508 15.73.902 3.245 2.684 6.006 4.609 8.68 3.91 5.444 8.277 10.52 12.518 15.702 1.028 1.254 1.958 2.805 4.042 3.19m36.597-29.425c-6.15-.143-9.944 1.875-12.787 6.022-3.746 5.473-3.421 12.304 1.265 17.012 4.653 4.675 10.384 5.885 16.588 4.08 9.405-2.733 12.743-13.936 6.523-21.488-3.284-3.982-7.794-5.373-11.59-5.626" vector-effect="non-scaling-stroke"/><path fill="#fff" d="M925.446 728.564c1.529 1.782 2.42 3.85 2.937 6.138a45 45 0 0 0 1.722 5.73c1.232 3.322 1.28 6.81 1.925 10.637-6.567-.682-12.848-.01-19.085-.726-2.871-.33-5.704-.978-8.547-1.534-5.214-1.012-10.285-2.491-15.07-4.823-10.703-5.225-21.104-10.835-29.964-19.041-6.804-6.31-11.77-13.783-15.785-22.011-.308-.633-.605-1.172-.165-1.936 2.6-4.477 2.926-9.504 3.217-14.476.396-6.776.55-13.563.809-20.554 5.478 1.65 10.967 3.069 16.109 5.522 3.504 1.672 7.123 3.152 10.148 5.682l-4.763.093a5.5 5.5 0 0 0-2.85.759c-1.017.627-.967 1.452.083 2.019 1.007.539 2.36.22 3.295 1.254-.385.66-.781 1.232-1.073 1.853-.825 1.749-.484 2.508 1.403 2.519 1.479.006 2.607.314 3.74 1.32.995.902 3.388.809 4.229.12 1.128-.93.726-2.171.583-3.332-.066-.583-.291-1.155-.484-1.71-.297-.87.275-1.271.853-1.678 2.98 2.926 6.517 5.143 9.795 7.689 2.97 2.299 5.94 4.598 8.349 7.519l-.594.462c-2.183-1.166-4.416-.858-6.666-.242-.55.154-1.265.077-1.457.797-.176.66.258 1.199.742 1.502 1.408.88 2.14 1.963 2.42 3.723.275 1.65 1.98 2.508 3.614 2.684 1.54.17 2.057-1.248 2.739-2.348 1.298-2.101-.033-3.773-.798-5.55l.457-.495A184 184 0 0 1 909 708.874c3.196 3.795 6.87 7.188 10.307 10.785 1.854 1.942 3.669 3.933 4.576 6.545-2.068-.478-4.158-.165-6.237-.148-.605 0-1.276.07-1.562.665-.368.765.215 1.309.688 1.815.88.935 1.754 1.887 2.684 2.778 2.458 2.354 4.334 1.903 5.577-1.32.176-.462.275-.952.412-1.43m-22.918-8.294c.165-.15.302-.292.462-.402.748-.55 2.27-.594 1.958-1.837-.297-1.188-1.69-1.166-2.783-1.243-.198-.016-.402-.038-.6-.011-1.551.209-2.414-.253-2.41-2.024 0-.984-.34-1.97-1.638-2.156-1.468-.22-2.183.182-2.557 2.057-.297 1.485-.864 2.03-2.393 1.678a7.2 7.2 0 0 0-2.678-.006c-1.914.303-2.41 1.705-1.183 3.223a3.3 3.3 0 0 0 1.139.946c.918.45 1.188 1.045 1.17 2.123-.037 2.195.892 2.998 3.08 3.025.914.017 1.816-.192 2.575-.66.913-.566 1.606-.445 2.409.209a4.73 4.73 0 0 0 3.35 1.062c2.139-.143 2.799-1.287 1.826-3.218-.484-.968-1.144-1.848-1.727-2.766m-49.198-16.39.352.632c-.484.34-1.006.644-1.446 1.029s-.985.858-.605 1.512c.308.534.929.726 1.545.77.402.028.836.11 1.188-.016 1.463-.523 2.563-.627 3.229 1.254.4 1.122 1.699 1.314 2.849 1.017 1.166-.302 1.479-1.292 1.468-2.332-.016-1.188-.632-2.568-.198-3.51.594-1.291 2.382-.274 3.52-.88.424-.23.99-.29 1.084-.895.088-.59-.33-.935-.787-1.117-1.017-.396-2.057-1.006-3.091-1.017-1.848-.017-2.475-.81-2.42-2.52.028-.687-.143-1.385-.286-2.067-.247-1.166-1.061-1.595-2.19-1.606-1.143-.011-2.056.5-2.237 1.584-.281 1.705-1.144 2.062-2.64 1.595-.176-.055-.396.005-.59.038-1.39.215-1.693.688-1.137 2.167.242.638.324.902-.275 1.44-1.408 1.244-1.287 1.76.357 2.366.737.275 1.54.374 2.31.55m25.322 24.167c.99-.748 2.04-1.501 3.042-2.315q1.589-1.298.082-2.783c-1.166-1.161-2.502-1.628-4.081-1.106-.76.248-1.468.622-2.194.957-.578.264-1.122.363-1.65-.132-.99-.94-2.035-2.508-3.438-1.716-1.177.666-.44 2.393-.341 3.63.11 1.265-.176 1.903-1.556 1.837a13.2 13.2 0 0 0-2.69.149c-1.358.23-1.617 1.023-.72 2.084.253.297.55.649.896.77 1.722.616 2.97 1.749 4.147 3.124.737.864 2.09 1.76 3.124.605 1.183-1.32 2.31-1.127 3.724-.748 1.045.28 2.167.396 3.256.385 1.138-.005 1.578-.935.896-1.87-.693-.957-1.54-1.787-2.497-2.871m33.275 18.365c.957-.083 1.854.126 2.32-.721.474-.863-.136-1.501-.637-2.123-.253-.308-.506-.621-.814-.87-1.226-.978-1.1-1.836-.005-2.897.797-.776 2.145-1.64 1.43-2.96-.66-1.22-2.13-.824-3.273-.681-1.078.126-1.914.143-2.486-.99-.836-1.667-2.387-1.612-3.9-1.337-1.638.292-1.98 1.738-1.891 2.98.137 1.849-.572 2.53-2.288 2.575-.385.01-.765.22-1.128.374-.462.198-.913.457-.957 1.023-.038.583.374.924.842 1.1q1.105.44 2.27.715c2.218.5 2.223.484 1.904 2.695-.231 1.568.308 2.173 1.903 2.167.836 0 1.7-.165 2.134-.858.864-1.353 1.826-1.2 3.025-.561.5.264 1.144.275 1.546.369M800.86 698.242c-1.215 1.524-3.008 2.244-4.62 3.168-9.817 5.599-20.086 10.258-30.487 14.636-4.267 1.798-8.8 2.574-13.408 2.882-7.601.51-15.175.478-22.611-1.485-2.893-.765-5.572-2.035-8.25-3.383.204-1.09.968-1.628 1.518-2.294 8.476-10.251 17.463-20.02 27.539-28.742 7.359-6.38 15.3-11.858 24.42-15.466q2.189 1.375 1.628 3.817-.165.726-.21 1.479c-.137 2.013 1.178 3.388 2.844 2.404 2.448-1.441 4.51-1.144 6.798-.121.248.11.594.088.88.038.677-.127 1.469-.132 1.832-.836.418-.803-.264-1.287-.726-1.777a19 19 0 0 0-1.524-1.43c-1.82-1.567-1.854-1.573-1.034-3.877.457-1.281.952-2.508-.781-3.23.347-.18.67-.433 1.04-.532 8.855-2.343 17.699-4.774 26.845-5.76a27.5 27.5 0 0 1 10.368.76c1.116.309 1.617.67 1.22 2.074-2.293 8.15-3.976 16.445-5.851 24.7-.33 1.43-.76 2.382-2.453 2.805-1.364.347-2.53 1.524-3.746 2.382-3.393 2.393-6.501 5.198-10.23 7.106.303-2.073.853-3.883 3.597-3.294.088.022.198-.028.286-.066.259-.127.572-.176.61-.567.034-.33-.071-.616-.34-.743-.534-.247-1.09-.506-1.667-.61-1.276-.231-1.705-.88-1.248-2.112a3 3 0 0 0 .165-.88c.055-1.26-.083-2.426-1.524-2.904-1.457-.484-3.811-.143-4.06.95-.66 2.916-2.435 3.648-5.081 3.422-.44-.038-.984.286-1.133.825-.198.743.385 1.045.864 1.403 1 .753 2.403.918 3.212 2.1-.87.952-1.75 1.766-2.443 2.718-.786 1.072-.313 1.952 1.034 1.98.572.01 1.348-.04 1.7-.39 1.468-1.48 3.245-1.266 5.027-1.156m-64.56 10.527c.133 1.062-.62 1.887-.692 2.882-.072.98.12 1.87 1.144 2.184 1.265.385 2.964.693 3.696-.325 1.76-2.42 3.69-1.87 5.835-1q.143.049.297.038c1.216-.016 2.558-.016 3.119-1.281.467-1.062-.506-1.821-1.122-2.585-.193-.226-.385-.48-.638-.627q-3.333-1.98-1.793-5.54c.077-.181.077-.39.104-.588.44-3.07-.962-4.306-3.938-3.41a4.95 4.95 0 0 0-1.82 1c-.963.88-1.898 1.349-3.223.81-.638-.253-1.375-.11-2.063.11-1.518.495-1.705 1.155-.627 2.31.517.56 1.447.77 1.513 1.908-1.166.396-2.376.78-3.56 1.22-.45.166-1 .353-.972.98.022.594.528.809.99.963 1.215.4 2.585.22 3.75.95m33.98-18.556c-1.617.143-2.926.149-4.18.407-1.012.215-1.155 1.084-.385 1.788.896.836 2.05 1.232 3.19 1.595.84.27 1.116.753.88 1.567-.165.578-.385 1.144-.484 1.733-.248 1.578.209 2.26 1.71 2.618 1.007.242 2.217.33 2.877-.385 1.595-1.716 3.41-1.518 5.357-1.1.187.044.396.01.6 0 .802-.06 1.677-.072 2.09-.902.516-1.012-.144-1.914-.853-2.31-2.805-1.58-2.2-3.454-.715-5.511.12-.16.176-.358.247-.55.715-1.82.28-2.723-1.677-2.767a13.2 13.2 0 0 1-4.565-.99c-2.563-.968-4.224.396-4.224 3.168 0 .495.077.98.132 1.64m31.625-16.292c.176 1.364.214 2.475.484 3.52.418 1.623 1.55 2.3 3.393 2.244 1.788-.055 2.288-.511 2.65-2.53a11.5 11.5 0 0 0 .21-2.365c-.033-1.094.347-1.655 1.49-1.75a8.25 8.25 0 0 0 3.427-.945c.897-.495.836-1.37-.1-1.787-.44-.204-.956-.253-1.434-.38q-2.145-.56-1.8-2.64c.33-2.002-.081-2.58-2.028-2.678-.688-.033-1.48-.083-2.052.209a3.14 3.14 0 0 1-3.058.033c-.968-.446-2.31-.616-3.085.275-.825.94.22 1.837.698 2.64.693 1.177.358 1.815-.852 2.244q-1.122.407-2.145 1.017c-.633.38-1.001.99-.825 1.766.16.67.754.836 1.32 1.067 1.166.473 2.348.099 3.7.055m36.824-12.623c1.732-.258 2.557.682 2.887 2.228.083.385.06.797.072 1.193.209 9.4.082 18.783-1.238 28.105a16.5 16.5 0 0 1-1.98 5.94c-.495.88-1.061 1.122-1.864.314-1.705-1.716-3.883-2.338-6.193-2.728a8.8 8.8 0 0 1-2.244-.776c-5.61-2.684-5.93-3.377-4.494-9.476q2.706-11.512 5.39-23.03c.303-1.27.633-2.452 1.634-3.436 2.838-2.772 3.135-2.794 6.017.319-2.563.275-3.746 2.37-5.253 4.026-.467.506-.33 1.1.072 1.622.693.897 1.545 1.678 2.706 1.634 1.457-.055 2.695.29 3.877 1.122.55.396 1.265.649 1.947.187 1.375-.93 1.738-4.048.589-5.39-.572-.682-1.276-1.243-1.925-1.854m-1.738 25.64c.187-1.814-.842-2.64-1.98-3.3-1.117-.648-2.426-.813-3.245.337-1.067 1.512-2.03 1.056-3.196.264-.484-.325-1.122-.545-1.628 0-.385.412-.302.99-.055 1.39.88 1.415.44 2.328-.874 3.169-.99.638-1.694 1.75-.765 2.778 1.595 1.76 3.454 3.31 5.93 3.685 1.127.176 2.326-.094 2.77-1.265.44-1.122 1.184-1.172 2.119-1.144.495.01 1.012.016 1.485-.088 1.292-.292 1.738-1.315.786-2.14-1.292-1.116-2.36-2.123-1.347-3.685" vector-effect="non-scaling-stroke"/><path fill="#fff" d="m896.843 695.608.457.533-.457.495-.594-.566Zm-95.832 2.585q.187-.11.314-.292-.006.264-.308.292" vector-effect="non-scaling-stroke"/><path fill="#545454" d="M944.368 656.965c3.795.253 8.305 1.645 11.589 5.627 6.22 7.55 2.882 18.755-6.523 21.488-6.204 1.799-11.935.594-16.583-4.081-4.691-4.708-5.016-11.54-1.265-17.011 2.838-4.148 6.633-6.16 12.782-6.023m-143.506 41.283c-1.787-.121-3.558-.33-5.027 1.15-.352.352-1.127.4-1.705.39-1.342-.028-1.815-.908-1.028-1.98.693-.952 1.573-1.766 2.442-2.717-.81-1.183-2.211-1.348-3.212-2.101-.48-.363-1.062-.66-.864-1.397a1.155 1.155 0 0 1 1.133-.825c2.64.22 4.428-.512 5.082-3.427.248-1.1 2.602-1.435 4.059-.951 1.44.479 1.573 1.65 1.518 2.904q-.011.457-.16.88c-.456 1.232-.027 1.88 1.249 2.112.578.11 1.133.363 1.667.61.275.127.374.407.34.743-.038.39-.351.44-.604.567-.094.038-.204.088-.292.066-2.75-.59-3.294 1.22-3.597 3.3l-.522.324q-.127.182-.308.292Zm-16.192-34.216c1.733.72 1.238 1.947.78 3.229-.82 2.305-.785 2.31 1.035 3.878q.798.67 1.524 1.43c.462.494 1.144.973.726 1.776-.363.704-1.155.71-1.832.836a1.65 1.65 0 0 1-.88-.04c-2.288-1.022-4.35-1.32-6.798.122-1.666.99-2.981-.385-2.843-2.403q.049-.748.209-1.485.55-2.437-1.634-3.812c.006-.715.534-1.171 1.078-1.177 3.097-.038 5.643-2.007 8.635-2.354m94.045 16.363c-.583.407-1.15.808-.853 1.677.193.56.418 1.128.484 1.71.143 1.156.545 2.404-.583 3.334-.842.688-3.234.78-4.235-.115-1.128-1.012-2.255-1.32-3.74-1.326-1.881-.011-2.217-.77-1.397-2.52.29-.62.687-1.192 1.072-1.853-.935-1.04-2.288-.714-3.294-1.253-1.045-.567-1.1-1.392-.083-2.02a5.5 5.5 0 0 1 2.85-.758l4.762-.094c1.144.49 2.178 1.205 3.432 1.469.88.18 1.65.627 1.584 1.749m-39.99-19.101c.649.61 1.353 1.17 1.925 1.848 1.155 1.347.786 4.466-.59 5.39-.686.467-1.39.214-1.946-.182a6.05 6.05 0 0 0-3.877-1.122c-1.155.044-2.013-.737-2.706-1.634-.402-.522-.54-1.116-.072-1.622 1.507-1.656 2.695-3.746 5.253-4.026.962.005 1.358.874 2.013 1.347m86.724 67.276c-.137.479-.237.968-.413 1.43-1.243 3.223-3.118 3.674-5.577 1.32-.935-.89-1.804-1.842-2.684-2.783-.473-.5-1.056-1.045-.687-1.81.286-.593.957-.66 1.562-.665 2.079-.016 4.169-.33 6.237.149Zm-22.918-8.294c.583.919 1.243 1.799 1.727 2.767.973 1.93.313 3.075-1.827 3.218a4.73 4.73 0 0 1-3.35-1.062c-.802-.66-1.495-.77-2.408-.215a4.8 4.8 0 0 1-2.574.67c-2.19-.032-3.12-.835-3.08-3.03.017-1.072-.253-1.671-1.171-2.122a3.3 3.3 0 0 1-1.14-.946c-1.226-1.513-.731-2.915 1.184-3.223.88-.143 1.825-.187 2.678.005 1.529.352 2.09-.192 2.392-1.677.374-1.87 1.09-2.272 2.558-2.057 1.298.187 1.644 1.17 1.639 2.156 0 1.77.858 2.233 2.409 2.024.198-.028.4-.006.605.01 1.089.078 2.475.056 2.777 1.244.314 1.243-1.21 1.292-1.958 1.837-.16.11-.291.253-.462.4m-49.197-16.39c-.77-.18-1.573-.274-2.31-.55-1.645-.61-1.76-1.126-.363-2.37.605-.538.522-.802.28-1.44-.555-1.48-.253-1.953 1.139-2.167.192-.033.412-.088.594-.033 1.485.462 2.354.104 2.64-1.595.176-1.09 1.089-1.595 2.233-1.59 1.127.01 1.94.44 2.189 1.606.143.682.313 1.38.29 2.068-.054 1.705.568 2.503 2.416 2.52 1.034.01 2.073.62 3.09 1.017.463.18.875.528.787 1.116-.088.605-.66.666-1.083.897-1.14.605-2.926-.413-3.52.88-.435.935.18 2.32.198 3.509.01 1.04-.303 2.035-1.47 2.332-1.154.297-2.446.104-2.848-1.018-.665-1.88-1.765-1.776-3.228-1.254-.352.127-.787.044-1.188.017-.616-.044-1.238-.237-1.546-.77-.38-.66.17-1.122.605-1.513.44-.385.963-.687 1.447-1.028Zm25.322 24.168c.95 1.084 1.804 1.914 2.497 2.866.682.946.242 1.87-.897 1.875-1.09.01-2.21-.104-3.256-.385-1.413-.38-2.54-.572-3.723.754-1.03 1.155-2.387.253-3.124-.605-1.183-1.38-2.426-2.514-4.147-3.13-.352-.12-.644-.473-.897-.77-.896-1.061-.638-1.853.72-2.084a13.2 13.2 0 0 1 2.69-.15c1.375.067 1.667-.576 1.557-1.83-.105-1.243-.836-2.97.34-3.63 1.403-.798 2.448.77 3.438 1.705.528.5 1.073.4 1.65.137.726-.33 1.436-.715 2.195-.957 1.578-.522 2.915-.055 4.08 1.106q1.508 1.485-.082 2.783c-1 .814-2.051 1.567-3.041 2.315m33.27 18.365c-.402-.094-1.045-.105-1.546-.37-1.2-.637-2.161-.791-3.025.562-.44.693-1.298.858-2.134.858-1.595 0-2.134-.6-1.903-2.167.319-2.21.314-2.194-1.903-2.695q-1.166-.275-2.272-.715c-.467-.176-.88-.517-.841-1.1.044-.566.495-.825.957-1.023.363-.154.748-.363 1.127-.374 1.716-.038 2.42-.726 2.288-2.574-.093-1.243.253-2.695 1.892-2.98 1.513-.276 3.064-.33 3.905 1.336.567 1.133 1.403 1.116 2.475.99 1.15-.138 2.624-.54 3.284.682.71 1.32-.638 2.183-1.436 2.959-1.1 1.06-1.22 1.92 0 2.898.314.248.567.56.82.87.495.62 1.11 1.259.638 2.122-.468.847-1.364.638-2.327.715m-15.658-50.347.594.567c.764 1.776 2.09 3.448.797 5.55-.682 1.1-1.193 2.518-2.74 2.348-1.632-.176-3.337-1.034-3.607-2.684-.286-1.76-1.017-2.844-2.42-3.724-.495-.302-.924-.841-.748-1.501.187-.72.902-.644 1.458-.798 2.25-.616 4.482-.924 6.666.242m-159.962 12.705c-1.16-.731-2.53-.55-3.751-.951-.462-.154-.968-.37-.99-.963-.028-.627.522-.814.973-.98 1.183-.44 2.393-.824 3.559-1.22-.066-1.138-.996-1.347-1.513-1.903-1.072-1.16-.89-1.82.627-2.315.688-.22 1.43-.363 2.063-.11 1.325.539 2.26.077 3.223-.81a4.95 4.95 0 0 1 1.815-1c2.98-.896 4.383.34 3.943 3.41-.027.198-.027.407-.11.589q-1.534 3.558 1.799 5.538c.247.149.445.402.638.633.616.759 1.595 1.518 1.122 2.58-.561 1.264-1.903 1.264-3.12 1.28q-.153.012-.296-.038c-2.145-.874-4.08-1.42-5.83 1-.737 1.019-2.436.716-3.701.326-1.023-.32-1.216-1.205-1.144-2.184.07-.99.825-1.815.693-2.882m33.979-18.557c-.055-.66-.132-1.15-.132-1.64 0-2.771 1.66-4.135 4.23-3.167a13.2 13.2 0 0 0 4.559.99c1.958.044 2.387.946 1.677 2.772-.071.187-.126.385-.242.55-1.485 2.052-2.1 3.927.715 5.5.704.402 1.364 1.304.853 2.316-.418.825-1.293.84-2.096.896-.203.017-.412.05-.605.01-1.941-.422-3.756-.62-5.351 1.1-.66.71-1.87.623-2.876.386-1.502-.363-1.958-1.045-1.705-2.623.088-.59.313-1.155.478-1.733.237-.814-.04-1.298-.88-1.567-1.138-.363-2.294-.76-3.19-1.595-.77-.704-.627-1.573.385-1.788 1.254-.258 2.563-.264 4.18-.407m31.625-16.296c-1.36.044-2.541.418-3.707-.055-.566-.231-1.16-.396-1.32-1.067-.176-.77.193-1.386.825-1.766a12 12 0 0 1 2.145-1.017c1.21-.43 1.546-1.067.853-2.24-.473-.807-1.53-1.704-.7-2.65.77-.88 2.119-.715 3.087-.27a3.14 3.14 0 0 0 3.058-.032c.572-.292 1.364-.242 2.05-.21 1.948.1 2.36.677 2.03 2.674q-.34 2.084 1.799 2.645c.479.127.99.176 1.436.38.935.418.99 1.287.099 1.787a8.25 8.25 0 0 1-3.427.946c-1.144.094-1.523.66-1.49 1.75.02.786-.067 1.589-.21 2.364-.363 2.019-.863 2.475-2.65 2.53-1.843.055-2.97-.621-3.394-2.25-.275-1.044-.308-2.144-.49-3.52m35.085 13.019c-1.012 1.562.055 2.569 1.348 3.685.95.825.505 1.848-.782 2.14-.478.11-.99.099-1.485.088-.935-.028-1.688.022-2.123 1.144-.445 1.172-1.644 1.44-2.772 1.265-2.475-.374-4.334-1.925-5.93-3.685-.934-1.03-.22-2.145.77-2.778 1.31-.841 1.745-1.76.87-3.168-.247-.407-.33-.98.055-1.391.506-.544 1.144-.324 1.628 0 1.166.792 2.129 1.249 3.2-.264.815-1.155 2.124-.99 3.246-.33 1.133.66 2.162 1.485 1.98 3.3" vector-effect="non-scaling-stroke"/></g><path fill="transparent" stroke="transparent" stroke-width="2.447" d="M250 219.005h1500v1061.99H250z"/></g></svg>